<svg xmlns="http://www.w3.org/2000/svg" xmlns:xlink="http://www.w3.org/1999/xlink" contentStyleType="text/css" height="943px" preserveAspectRatio="none" style="width:773px;height:943px;background:#FFFFFF;" version="1.1" viewBox="0 0 773 943" width="773px" zoomAndPan="magnify"><defs/><g><!--entity Swagger UI--><g id="elem_Swagger UI"><rect fill="#F1F1F1" height="36.2969" rx="2.5" ry="2.5" style="stroke:#181818;stroke-width:0.5;" width="99.8848" x="330.02" y="7"/><text fill="#000000" font-family="sans-serif" font-size="14" lengthAdjust="spacing" textLength="79.8848" x="340.02" y="29.9951">Swagger UI</text></g><!--entity Hardware--><g id="elem_Hardware"><rect fill="#F1F1F1" height="36.2969" rx="2.5" ry="2.5" style="stroke:#181818;stroke-width:0.5;" width="88.1475" x="225.89" y="901.29"/><text fill="#000000" font-family="sans-serif" font-size="14" lengthAdjust="spacing" textLength="68.1475" x="235.89" y="924.2851">Hardware</text></g><!--class MyController--><g id="elem_MyController"><rect codeLine="4" fill="#F1F1F1" height="48" id="MyController" rx="2.5" ry="2.5" style="stroke:#181818;stroke-width:0.5;" width="121.5371" x="319.19" y="120.29"/><ellipse cx="334.19" cy="136.29" fill="#ADD1B2" rx="11" ry="11" style="stroke:#181818;stroke-width:1.0;"/><path d="M337.1588,141.9306 Q336.5806,142.2275 335.94,142.3681 Q335.2994,142.5244 334.5963,142.5244 Q332.0963,142.5244 330.7681,140.8838 Q329.4556,139.2275 329.4556,136.1025 Q329.4556,132.9775 330.7681,131.3213 Q332.0963,129.665 334.5963,129.665 Q335.2994,129.665 335.94,129.8213 Q336.5963,129.9775 337.1588,130.2744 L337.1588,132.9931 Q336.5338,132.415 335.94,132.1494 Q335.3463,131.8681 334.7213,131.8681 Q333.3775,131.8681 332.69,132.9463 Q332.0025,134.0088 332.0025,136.1025 Q332.0025,138.1963 332.69,139.2744 Q333.3775,140.3369 334.7213,140.3369 Q335.3463,140.3369 335.94,140.0713 Q336.5338,139.79 337.1588,139.2119 L337.1588,141.9306 Z " fill="#000000"/><text fill="#000000" font-family="sans-serif" font-size="14" lengthAdjust="spacing" textLength="89.5371" x="348.19" y="141.1367">MyController</text><line style="stroke:#181818;stroke-width:0.5;" x1="320.19" x2="439.7271" y1="152.29" y2="152.29"/><line style="stroke:#181818;stroke-width:0.5;" x1="320.19" x2="439.7271" y1="160.29" y2="160.29"/></g><!--class CommonModule--><g id="elem_CommonModule"><rect codeLine="7" fill="#F1F1F1" height="48" id="CommonModule" rx="2.5" ry="2.5" style="stroke:#181818;stroke-width:0.5;" width="145.9619" x="150.98" y="401.29"/><ellipse cx="165.98" cy="417.29" fill="#ADD1B2" rx="11" ry="11" style="stroke:#181818;stroke-width:1.0;"/><path d="M168.9488,422.9306 Q168.3706,423.2275 167.73,423.3681 Q167.0894,423.5244 166.3863,423.5244 Q163.8863,423.5244 162.5581,421.8838 Q161.2456,420.2275 161.2456,417.1025 Q161.2456,413.9775 162.5581,412.3213 Q163.8863,410.665 166.3863,410.665 Q167.0894,410.665 167.73,410.8213 Q168.3863,410.9775 168.9488,411.2744 L168.9488,413.9931 Q168.3238,413.415 167.73,413.1494 Q167.1363,412.8681 166.5113,412.8681 Q165.1675,412.8681 164.48,413.9463 Q163.7925,415.0088 163.7925,417.1025 Q163.7925,419.1963 164.48,420.2744 Q165.1675,421.3369 166.5113,421.3369 Q167.1363,421.3369 167.73,421.0713 Q168.3238,420.79 168.9488,420.2119 L168.9488,422.9306 Z " fill="#000000"/><text fill="#000000" font-family="sans-serif" font-size="14" lengthAdjust="spacing" textLength="113.9619" x="179.98" y="422.1367">CommonModule</text><line style="stroke:#181818;stroke-width:0.5;" x1="151.98" x2="295.9419" y1="433.29" y2="433.29"/><line style="stroke:#181818;stroke-width:0.5;" x1="151.98" x2="295.9419" y1="441.29" y2="441.29"/></g><!--class CoreModule--><g id="elem_CoreModule"><rect codeLine="10" fill="#F1F1F1" height="48" id="CoreModule" rx="2.5" ry="2.5" style="stroke:#181818;stroke-width:0.5;" width="115.6172" x="255.15" y="245.29"/><ellipse cx="270.15" cy="261.29" fill="#ADD1B2" rx="11" ry="11" style="stroke:#181818;stroke-width:1.0;"/><path d="M273.1188,266.9306 Q272.5406,267.2275 271.9,267.3681 Q271.2594,267.5244 270.5563,267.5244 Q268.0563,267.5244 266.7281,265.8838 Q265.4156,264.2275 265.4156,261.1025 Q265.4156,257.9775 266.7281,256.3213 Q268.0563,254.665 270.5563,254.665 Q271.2594,254.665 271.9,254.8213 Q272.5563,254.9775 273.1188,255.2744 L273.1188,257.9931 Q272.4938,257.415 271.9,257.1494 Q271.3063,256.8681 270.6813,256.8681 Q269.3375,256.8681 268.65,257.9463 Q267.9625,259.0088 267.9625,261.1025 Q267.9625,263.1963 268.65,264.2744 Q269.3375,265.3369 270.6813,265.3369 Q271.3063,265.3369 271.9,265.0713 Q272.4938,264.79 273.1188,264.2119 L273.1188,266.9306 Z " fill="#000000"/><text fill="#000000" font-family="sans-serif" font-size="14" lengthAdjust="spacing" textLength="83.6172" x="284.15" y="266.1367">CoreModule</text><line style="stroke:#181818;stroke-width:0.5;" x1="256.15" x2="369.7672" y1="277.29" y2="277.29"/><line style="stroke:#181818;stroke-width:0.5;" x1="256.15" x2="369.7672" y1="285.29" y2="285.29"/></g><!--class ControlModule--><g id="elem_ControlModule"><rect codeLine="13" fill="#F1F1F1" height="48" id="ControlModule" rx="2.5" ry="2.5" style="stroke:#181818;stroke-width:0.5;" width="133.8213" x="17.05" y="245.29"/><ellipse cx="32.05" cy="261.29" fill="#ADD1B2" rx="11" ry="11" style="stroke:#181818;stroke-width:1.0;"/><path d="M35.0188,266.9306 Q34.4406,267.2275 33.8,267.3681 Q33.1594,267.5244 32.4563,267.5244 Q29.9562,267.5244 28.6281,265.8838 Q27.3156,264.2275 27.3156,261.1025 Q27.3156,257.9775 28.6281,256.3213 Q29.9562,254.665 32.4563,254.665 Q33.1594,254.665 33.8,254.8213 Q34.4563,254.9775 35.0188,255.2744 L35.0188,257.9931 Q34.3938,257.415 33.8,257.1494 Q33.2063,256.8681 32.5813,256.8681 Q31.2375,256.8681 30.55,257.9463 Q29.8625,259.0088 29.8625,261.1025 Q29.8625,263.1963 30.55,264.2744 Q31.2375,265.3369 32.5813,265.3369 Q33.2063,265.3369 33.8,265.0713 Q34.3938,264.79 35.0188,264.2119 L35.0188,266.9306 Z " fill="#000000"/><text fill="#000000" font-family="sans-serif" font-size="14" lengthAdjust="spacing" textLength="101.8213" x="46.05" y="266.1367">ControlModule</text><line style="stroke:#181818;stroke-width:0.5;" x1="18.05" x2="149.8713" y1="277.29" y2="277.29"/><line style="stroke:#181818;stroke-width:0.5;" x1="18.05" x2="149.8713" y1="285.29" y2="285.29"/></g><!--class SensorModule--><g id="elem_SensorModule"><rect codeLine="16" fill="#F1F1F1" height="48" id="SensorModule" rx="2.5" ry="2.5" style="stroke:#181818;stroke-width:0.5;" width="130.8955" x="405.51" y="245.29"/><ellipse cx="420.51" cy="261.29" fill="#ADD1B2" rx="11" ry="11" style="stroke:#181818;stroke-width:1.0;"/><path d="M423.4788,266.9306 Q422.9006,267.2275 422.26,267.3681 Q421.6194,267.5244 420.9163,267.5244 Q418.4163,267.5244 417.0881,265.8838 Q415.7756,264.2275 415.7756,261.1025 Q415.7756,257.9775 417.0881,256.3213 Q418.4163,254.665 420.9163,254.665 Q421.6194,254.665 422.26,254.8213 Q422.9163,254.9775 423.4788,255.2744 L423.4788,257.9931 Q422.8538,257.415 422.26,257.1494 Q421.6663,256.8681 421.0413,256.8681 Q419.6975,256.8681 419.01,257.9463 Q418.3225,259.0088 418.3225,261.1025 Q418.3225,263.1963 419.01,264.2744 Q419.6975,265.3369 421.0413,265.3369 Q421.6663,265.3369 422.26,265.0713 Q422.8538,264.79 423.4788,264.2119 L423.4788,266.9306 Z " fill="#000000"/><text fill="#000000" font-family="sans-serif" font-size="14" lengthAdjust="spacing" textLength="98.8955" x="434.51" y="266.1367">SensorModule</text><line style="stroke:#181818;stroke-width:0.5;" x1="406.51" x2="535.4055" y1="277.29" y2="277.29"/><line style="stroke:#181818;stroke-width:0.5;" x1="406.51" x2="535.4055" y1="285.29" y2="285.29"/></g><!--class SystemModule--><g id="elem_SystemModule"><rect codeLine="19" fill="#F1F1F1" height="48" id="SystemModule" rx="2.5" ry="2.5" style="stroke:#181818;stroke-width:0.5;" width="135.1133" x="611.4" y="323.29"/><ellipse cx="626.4" cy="339.29" fill="#ADD1B2" rx="11" ry="11" style="stroke:#181818;stroke-width:1.0;"/><path d="M629.3688,344.9306 Q628.7906,345.2275 628.15,345.3681 Q627.5094,345.5244 626.8063,345.5244 Q624.3063,345.5244 622.9781,343.8838 Q621.6656,342.2275 621.6656,339.1025 Q621.6656,335.9775 622.9781,334.3213 Q624.3063,332.665 626.8063,332.665 Q627.5094,332.665 628.15,332.8213 Q628.8063,332.9775 629.3688,333.2744 L629.3688,335.9931 Q628.7438,335.415 628.15,335.1494 Q627.5563,334.8681 626.9313,334.8681 Q625.5875,334.8681 624.9,335.9463 Q624.2125,337.0088 624.2125,339.1025 Q624.2125,341.1963 624.9,342.2744 Q625.5875,343.3369 626.9313,343.3369 Q627.5563,343.3369 628.15,343.0713 Q628.7438,342.79 629.3688,342.2119 L629.3688,344.9306 Z " fill="#000000"/><text fill="#000000" font-family="sans-serif" font-size="14" lengthAdjust="spacing" textLength="103.1133" x="640.4" y="344.1367">SystemModule</text><line style="stroke:#181818;stroke-width:0.5;" x1="612.4" x2="745.5133" y1="355.29" y2="355.29"/><line style="stroke:#181818;stroke-width:0.5;" x1="612.4" x2="745.5133" y1="363.29" y2="363.29"/></g><!--class CanMessage--><g id="elem_CanMessage"><rect codeLine="22" fill="#F1F1F1" height="48" id="CanMessage" rx="2.5" ry="2.5" style="stroke:#181818;stroke-width:0.5;" width="120.5869" x="402.67" y="776.29"/><ellipse cx="417.67" cy="792.29" fill="#ADD1B2" rx="11" ry="11" style="stroke:#181818;stroke-width:1.0;"/><path d="M420.6388,797.9306 Q420.0606,798.2275 419.42,798.3681 Q418.7794,798.5244 418.0763,798.5244 Q415.5763,798.5244 414.2481,796.8838 Q412.9356,795.2275 412.9356,792.1025 Q412.9356,788.9775 414.2481,787.3213 Q415.5763,785.665 418.0763,785.665 Q418.7794,785.665 419.42,785.8213 Q420.0763,785.9775 420.6388,786.2744 L420.6388,788.9931 Q420.0138,788.415 419.42,788.1494 Q418.8263,787.8681 418.2013,787.8681 Q416.8575,787.8681 416.17,788.9463 Q415.4825,790.0088 415.4825,792.1025 Q415.4825,794.1963 416.17,795.2744 Q416.8575,796.3369 418.2013,796.3369 Q418.8263,796.3369 419.42,796.0713 Q420.0138,795.79 420.6388,795.2119 L420.6388,797.9306 Z " fill="#000000"/><text fill="#000000" font-family="sans-serif" font-size="14" lengthAdjust="spacing" textLength="88.5869" x="431.67" y="797.1367">CanMessage</text><line style="stroke:#181818;stroke-width:0.5;" x1="403.67" x2="522.2569" y1="808.29" y2="808.29"/><line style="stroke:#181818;stroke-width:0.5;" x1="403.67" x2="522.2569" y1="816.29" y2="816.29"/></g><!--class CanBus--><g id="elem_CanBus"><rect codeLine="25" fill="#F1F1F1" height="48" id="CanBus" rx="2.5" ry="2.5" style="stroke:#181818;stroke-width:0.5;" width="84.999" x="227.46" y="776.29"/><ellipse cx="242.46" cy="792.29" fill="#ADD1B2" rx="11" ry="11" style="stroke:#181818;stroke-width:1.0;"/><path d="M245.4288,797.9306 Q244.8506,798.2275 244.21,798.3681 Q243.5694,798.5244 242.8663,798.5244 Q240.3663,798.5244 239.0381,796.8838 Q237.7256,795.2275 237.7256,792.1025 Q237.7256,788.9775 239.0381,787.3213 Q240.3663,785.665 242.8663,785.665 Q243.5694,785.665 244.21,785.8213 Q244.8663,785.9775 245.4288,786.2744 L245.4288,788.9931 Q244.8038,788.415 244.21,788.1494 Q243.6163,787.8681 242.9913,787.8681 Q241.6475,787.8681 240.96,788.9463 Q240.2725,790.0088 240.2725,792.1025 Q240.2725,794.1963 240.96,795.2744 Q241.6475,796.3369 242.9913,796.3369 Q243.6163,796.3369 244.21,796.0713 Q244.8038,795.79 245.4288,795.2119 L245.4288,797.9306 Z " fill="#000000"/><text fill="#000000" font-family="sans-serif" font-size="14" lengthAdjust="spacing" textLength="52.999" x="256.46" y="797.1367">CanBus</text><line style="stroke:#181818;stroke-width:0.5;" x1="228.46" x2="311.459" y1="808.29" y2="808.29"/><line style="stroke:#181818;stroke-width:0.5;" x1="228.46" x2="311.459" y1="816.29" y2="816.29"/></g><!--class CanRequest--><g id="elem_CanRequest"><rect codeLine="28" fill="#F1F1F1" height="48" id="CanRequest" rx="2.5" ry="2.5" style="stroke:#181818;stroke-width:0.5;" width="116.7246" x="308.6" y="651.29"/><ellipse cx="323.6" cy="667.29" fill="#ADD1B2" rx="11" ry="11" style="stroke:#181818;stroke-width:1.0;"/><path d="M326.5688,672.9306 Q325.9906,673.2275 325.35,673.3681 Q324.7094,673.5244 324.0063,673.5244 Q321.5063,673.5244 320.1781,671.8838 Q318.8656,670.2275 318.8656,667.1025 Q318.8656,663.9775 320.1781,662.3213 Q321.5063,660.665 324.0063,660.665 Q324.7094,660.665 325.35,660.8213 Q326.0063,660.9775 326.5688,661.2744 L326.5688,663.9931 Q325.9438,663.415 325.35,663.1494 Q324.7563,662.8681 324.1313,662.8681 Q322.7875,662.8681 322.1,663.9463 Q321.4125,665.0088 321.4125,667.1025 Q321.4125,669.1963 322.1,670.2744 Q322.7875,671.3369 324.1313,671.3369 Q324.7563,671.3369 325.35,671.0713 Q325.9438,670.79 326.5688,670.2119 L326.5688,672.9306 Z " fill="#000000"/><text fill="#000000" font-family="sans-serif" font-size="14" lengthAdjust="spacing" textLength="84.7246" x="337.6" y="672.1367">CanRequest</text><line style="stroke:#181818;stroke-width:0.5;" x1="309.6" x2="424.3246" y1="683.29" y2="683.29"/><line style="stroke:#181818;stroke-width:0.5;" x1="309.6" x2="424.3246" y1="691.29" y2="691.29"/></g><!--class CanRequestManager--><g id="elem_CanRequestManager"><rect codeLine="31" fill="#F1F1F1" height="48" id="CanRequestManager" rx="2.5" ry="2.5" style="stroke:#181818;stroke-width:0.5;" width="178.0908" x="277.92" y="526.29"/><ellipse cx="292.92" cy="542.29" fill="#ADD1B2" rx="11" ry="11" style="stroke:#181818;stroke-width:1.0;"/><path d="M295.8888,547.9306 Q295.3106,548.2275 294.67,548.3681 Q294.0294,548.5244 293.3263,548.5244 Q290.8263,548.5244 289.4981,546.8838 Q288.1856,545.2275 288.1856,542.1025 Q288.1856,538.9775 289.4981,537.3213 Q290.8263,535.665 293.3263,535.665 Q294.0294,535.665 294.67,535.8213 Q295.3263,535.9775 295.8888,536.2744 L295.8888,538.9931 Q295.2638,538.415 294.67,538.1494 Q294.0763,537.8681 293.4513,537.8681 Q292.1075,537.8681 291.42,538.9463 Q290.7325,540.0088 290.7325,542.1025 Q290.7325,544.1963 291.42,545.2744 Q292.1075,546.3369 293.4513,546.3369 Q294.0763,546.3369 294.67,546.0713 Q295.2638,545.79 295.8888,545.2119 L295.8888,547.9306 Z " fill="#000000"/><text fill="#000000" font-family="sans-serif" font-size="14" lengthAdjust="spacing" textLength="146.0908" x="306.92" y="547.1367">CanRequestManager</text><line style="stroke:#181818;stroke-width:0.5;" x1="278.92" x2="455.0108" y1="558.29" y2="558.29"/><line style="stroke:#181818;stroke-width:0.5;" x1="278.92" x2="455.0108" y1="566.29" y2="566.29"/></g><!--link Swagger UI to MyController--><g id="link_Swagger UI_MyController"><path codeLine="37" d="M379.96,49.68 C379.96,69.98 379.96,91.49 379.96,113.97 " fill="none" id="Swagger UI-MyController" style="stroke:#181818;stroke-width:1.0;"/><polygon fill="#181818" points="379.96,43.68,375.96,52.68,379.96,48.68,383.96,52.68,379.96,43.68" style="stroke:#181818;stroke-width:1.0;"/><polygon fill="#181818" points="379.96,119.97,383.96,110.97,379.96,114.97,375.96,110.97,379.96,119.97" style="stroke:#181818;stroke-width:1.0;"/><text fill="#000000" font-family="sans-serif" font-size="13" lengthAdjust="spacing" textLength="104.9141" x="380.96" y="86.3569">handle requests</text></g><!--link MyController to ControlModule--><g id="link_MyController_ControlModule"><path codeLine="38" d="M313.1397,160.7867 C277.8897,169.8667 238.95,181.62 200.96,198.29 C171.59,211.18 145.549,226.7522 122.819,241.6422 " fill="none" id="MyController-ControlModule" style="stroke:#181818;stroke-width:1.0;"/><polygon fill="#181818" points="318.95,159.29,309.2367,157.6615,314.1081,160.5372,311.2323,165.4086,318.95,159.29" style="stroke:#181818;stroke-width:1.0;"/><polygon fill="#181818" points="117.8,244.93,127.5204,243.3442,121.9825,242.1901,123.1366,236.6523,117.8,244.93" style="stroke:#181818;stroke-width:1.0;"/><text fill="#000000" font-family="sans-serif" font-size="13" lengthAdjust="spacing" textLength="102.5654" x="201.96" y="211.3569">manage control</text></g><!--link MyController to CoreModule--><g id="link_MyController_CoreModule"><path codeLine="39" d="M338.5049,172.4521 C328.6549,180.5921 323.77,186.79 317.96,198.29 C310.71,212.65 309.3446,224.8159 309.9746,239.0459 " fill="none" id="MyController-CoreModule" style="stroke:#181818;stroke-width:1.0;"/><polygon fill="#181818" points="343.13,168.63,333.6443,171.2798,339.2758,171.8151,338.7405,177.4466,343.13,168.63" style="stroke:#181818;stroke-width:1.0;"/><polygon fill="#181818" points="310.24,245.04,313.838,235.8719,310.0189,240.0449,305.8459,236.2257,310.24,245.04" style="stroke:#181818;stroke-width:1.0;"/><text fill="#000000" font-family="sans-serif" font-size="13" lengthAdjust="spacing" textLength="85.6616" x="318.96" y="211.3569">manage core</text></g><!--link MyController to SensorModule--><g id="link_MyController_SensorModule"><path codeLine="40" d="M400.8589,173.5432 C417.0489,195.4232 433.9519,218.2763 450.1219,240.1363 " fill="none" id="MyController-SensorModule" style="stroke:#181818;stroke-width:1.0;"/><polygon fill="#181818" points="397.29,168.72,399.4279,178.334,400.2641,172.7393,405.8588,173.5755,397.29,168.72" style="stroke:#181818;stroke-width:1.0;"/><polygon fill="#181818" points="453.69,244.96,451.5536,235.3456,450.7165,240.9402,445.122,240.1032,453.69,244.96" style="stroke:#181818;stroke-width:1.0;"/><text fill="#000000" font-family="sans-serif" font-size="13" lengthAdjust="spacing" textLength="107.0723" x="431.96" y="211.3569">manage sensors</text></g><!--link MyController to SystemModule--><g id="link_MyController_SystemModule"><path codeLine="41" d="M446.7676,157.5667 C480.2776,165.5267 515.64,177.31 547.96,198.29 C599.33,231.65 639.4335,285.4399 661.0235,317.9899 " fill="none" id="MyController-SystemModule" style="stroke:#181818;stroke-width:1.0;"/><polygon fill="#181818" points="440.93,156.18,448.7619,162.1517,445.7946,157.3356,450.6108,154.3683,440.93,156.18" style="stroke:#181818;stroke-width:1.0;"/><polygon fill="#181818" points="664.34,322.99,662.6987,313.2789,661.5763,318.8233,656.0319,317.7009,664.34,322.99" style="stroke:#181818;stroke-width:1.0;"/><text fill="#000000" font-family="sans-serif" font-size="13" lengthAdjust="spacing" textLength="104.2158" x="570.96" y="211.3569">manage system</text></g><!--link ControlModule to CommonModule--><g id="link_ControlModule_CommonModule"><path codeLine="43" d="M82.0641,299.6589 C81.6341,321.9089 84.51,349.21 101.96,371.29 C114.34,386.97 126.7767,395.7329 145.1067,403.6029 " fill="none" id="ControlModule-CommonModule" style="stroke:#181818;stroke-width:1.0;"/><polygon fill="#181818" points="82.18,293.66,78.0068,302.581,82.0834,298.6591,86.0054,302.7356,82.18,293.66" style="stroke:#181818;stroke-width:1.0;"/><polygon fill="#181818" points="150.62,405.97,143.9281,398.7437,146.0256,403.9974,140.7719,406.0948,150.62,405.97" style="stroke:#181818;stroke-width:1.0;"/><text fill="#000000" font-family="sans-serif" font-size="13" lengthAdjust="spacing" textLength="106.4248" x="102.96" y="351.8569">use shared logic</text></g><!--link CoreModule to CommonModule--><g id="link_CoreModule_CommonModule"><path codeLine="44" d="M254.1452,296.8035 C242.2352,304.5235 236.09,311.08 228.96,323.29 C215.15,346.94 215.4811,373.3275 218.5011,394.9775 " fill="none" id="CoreModule-CommonModule" style="stroke:#181818;stroke-width:1.0;"/><polygon fill="#181818" points="259.18,293.54,249.4521,295.0788,254.9843,296.2596,253.8035,301.7918,259.18,293.54" style="stroke:#181818;stroke-width:1.0;"/><polygon fill="#181818" points="219.33,400.92,222.0483,391.4537,218.6392,395.9679,214.125,392.5589,219.33,400.92" style="stroke:#181818;stroke-width:1.0;"/><text fill="#000000" font-family="sans-serif" font-size="13" lengthAdjust="spacing" textLength="106.4248" x="229.96" y="351.8569">use shared logic</text></g><!--link SensorModule to CommonModule--><g id="link_SensorModule_CommonModule"><path codeLine="45" d="M441.4404,297.714 C417.0204,319.694 382.62,348.5 344.96,371.29 C326.52,382.46 310.8274,390.2123 291.3574,398.5323 " fill="none" id="SensorModule-CommonModule" style="stroke:#181818;stroke-width:1.0;"/><polygon fill="#181818" points="445.9,293.7,436.5346,296.7479,442.1837,297.045,441.8866,302.694,445.9,293.7" style="stroke:#181818;stroke-width:1.0;"/><polygon fill="#181818" points="285.84,400.89,295.6878,401.0317,290.4378,398.9252,292.5442,393.6752,285.84,400.89" style="stroke:#181818;stroke-width:1.0;"/><text fill="#000000" font-family="sans-serif" font-size="13" lengthAdjust="spacing" textLength="106.4248" x="410.96" y="351.8569">use shared logic</text></g><!--link ControlModule to CanRequestManager--><g id="link_ControlModule_CanRequestManager"><path codeLine="47" d="M64.0958,298.6079 C40.2358,335.2479 6,402 40.96,449.29 C69.33,487.67 185.4094,516.2394 271.8094,532.9694 " fill="none" id="ControlModule-CanRequestManager" style="stroke:#181818;stroke-width:1.0;"/><polygon fill="#181818" points="67.37,293.58,59.1068,298.9391,64.6415,297.7699,65.8107,303.3046,67.37,293.58" style="stroke:#181818;stroke-width:1.0;"/><polygon fill="#181818" points="277.7,534.11,269.6245,528.472,272.7912,533.1595,268.1037,536.3261,277.7,534.11" style="stroke:#181818;stroke-width:1.0;"/><text fill="#000000" font-family="sans-serif" font-size="13" lengthAdjust="spacing" textLength="91.2856" x="41.96" y="429.8569">direct request</text></g><!--link CoreModule to CanRequestManager--><g id="link_CoreModule_CanRequestManager"><path codeLine="48" d="M330.6823,298.9902 C335.6623,307.9202 337.82,313.15 340.96,323.29 C363.1,394.79 366.6553,478.2702 367.0353,519.9402 " fill="none" id="CoreModule-CanRequestManager" style="stroke:#181818;stroke-width:1.0;"/><polygon fill="#181818" points="327.76,293.75,328.65,303.5586,330.1953,298.1169,335.637,299.6621,327.76,293.75" style="stroke:#181818;stroke-width:1.0;"/><polygon fill="#181818" points="367.09,525.94,371.0078,516.9039,367.0444,520.9402,363.0081,516.9768,367.09,525.94" style="stroke:#181818;stroke-width:1.0;"/><text fill="#000000" font-family="sans-serif" font-size="13" lengthAdjust="spacing" textLength="91.2856" x="364.96" y="429.8569">direct request</text></g><!--link SensorModule to CanRequestManager--><g id="link_SensorModule_CanRequestManager"><path codeLine="49" d="M508.0037,297.6544 C516.9737,305.9144 521.14,311.94 525.96,323.29 C534.31,342.93 532.91,351.12 525.96,371.29 C502.81,438.48 444.0728,491.8679 404.6828,522.2179 " fill="none" id="SensorModule-CanRequestManager" style="stroke:#181818;stroke-width:1.0;"/><polygon fill="#181818" points="503.59,293.59,507.501,302.629,507.2681,296.977,512.9202,296.7441,503.59,293.59" style="stroke:#181818;stroke-width:1.0;"/><polygon fill="#181818" points="399.93,525.88,409.5006,523.5555,403.8907,522.8283,404.6179,517.2184,399.93,525.88" style="stroke:#181818;stroke-width:1.0;"/><text fill="#000000" font-family="sans-serif" font-size="13" lengthAdjust="spacing" textLength="91.2856" x="512.96" y="429.8569">direct request</text></g><!--link SystemModule to CanRequestManager--><g id="link_SystemModule_CanRequestManager"><path codeLine="50" d="M677.2554,377.6024 C675.1454,399.5324 669.74,426.35 652.96,449.29 C607.94,510.86 528.1029,533.9341 462.1929,543.0941 " fill="none" id="SystemModule-CanRequestManager" style="stroke:#181818;stroke-width:1.0;"/><polygon fill="#181818" points="677.83,371.63,672.9864,380.2055,677.3511,376.607,680.9497,380.9717,677.83,371.63" style="stroke:#181818;stroke-width:1.0;"/><polygon fill="#181818" points="456.25,543.92,465.7149,546.643,461.2024,543.2317,464.6137,538.7192,456.25,543.92" style="stroke:#181818;stroke-width:1.0;"/><text fill="#000000" font-family="sans-serif" font-size="13" lengthAdjust="spacing" textLength="91.8696" x="673.96" y="429.8569">send requests</text></g><!--link CommonModule to CanRequestManager--><g id="link_CommonModule_CanRequestManager"><path codeLine="52" d="M228.2685,455.397 C231.3385,470.327 236.17,483.4 247.96,496.29 C259.33,508.72 268.779,515.7761 284.089,523.2561 " fill="none" id="CommonModule-CanRequestManager" style="stroke:#181818;stroke-width:1.0;"/><polygon fill="#181818" points="227.06,449.52,224.9547,459.1412,228.0671,454.4175,232.7907,457.5299,227.06,449.52" style="stroke:#181818;stroke-width:1.0;"/><polygon fill="#181818" points="289.48,525.89,283.1494,518.3452,284.9875,523.6951,279.6376,525.5332,289.48,525.89" style="stroke:#181818;stroke-width:1.0;"/><text fill="#000000" font-family="sans-serif" font-size="13" lengthAdjust="spacing" textLength="91.8696" x="248.96" y="492.3569">send requests</text></g><!--link CanRequestManager to CanRequest--><g id="link_CanRequestManager_CanRequest"><path codeLine="54" d="M366.96,580.72 C366.96,602.6 366.96,623.1 366.96,644.96 " fill="none" id="CanRequestManager-CanRequest" style="stroke:#181818;stroke-width:1.0;"/><polygon fill="#181818" points="366.96,574.72,362.96,583.72,366.96,579.72,370.96,583.72,366.96,574.72" style="stroke:#181818;stroke-width:1.0;"/><polygon fill="#181818" points="366.96,650.96,370.96,641.96,366.96,645.96,362.96,641.96,366.96,650.96" style="stroke:#181818;stroke-width:1.0;"/><text fill="#000000" font-family="sans-serif" font-size="13" lengthAdjust="spacing" textLength="164.4106" x="367.96" y="617.3569">manage request creation</text></g><!--link CanRequest to CanBus--><g id="link_CanRequest_CanBus"><path codeLine="55" d="M302.8564,695.3198 C285.1864,703.3398 273.23,712.53 262.96,729.29 C254.47,743.14 255.0501,755.7284 259.1501,770.1584 " fill="none" id="CanRequest-CanBus" style="stroke:#181818;stroke-width:1.0;"/><polygon fill="#181818" points="308.32,692.84,298.4714,692.9173,303.767,694.9065,301.7778,700.2021,308.32,692.84" style="stroke:#181818;stroke-width:1.0;"/><polygon fill="#181818" points="260.79,775.93,262.1779,766.1794,259.4234,771.1204,254.4825,768.3659,260.79,775.93" style="stroke:#181818;stroke-width:1.0;"/><text fill="#000000" font-family="sans-serif" font-size="13" lengthAdjust="spacing" textLength="152.7627" x="263.96" y="742.3569">send/receive messages</text></g><!--link CanBus to CanMessage--><g id="link_CanBus_CanMessage"><path codeLine="56" d="M318.79,800.29 C345.11,800.29 367.24,800.29 396.31,800.29 " fill="none" id="CanBus-CanMessage" style="stroke:#181818;stroke-width:1.0;"/><polygon fill="#181818" points="312.79,800.29,321.79,804.29,317.79,800.29,321.79,796.29,312.79,800.29" style="stroke:#181818;stroke-width:1.0;"/><polygon fill="#181818" points="402.31,800.29,393.31,796.29,397.31,800.29,393.31,804.29,402.31,800.29" style="stroke:#181818;stroke-width:1.0;"/><text fill="#000000" font-family="sans-serif" font-size="13" lengthAdjust="spacing" textLength="54.666" x="330.56" y="793.3569">send via</text></g><!--link CanBus to Hardware--><g id="link_CanBus_Hardware"><path codeLine="57" d="M269.96,830.72 C269.96,853.29 269.96,874.9 269.96,895.15 " fill="none" id="CanBus-Hardware" style="stroke:#181818;stroke-width:1.0;"/><polygon fill="#181818" points="269.96,824.72,265.96,833.72,269.96,829.72,273.96,833.72,269.96,824.72" style="stroke:#181818;stroke-width:1.0;"/><polygon fill="#181818" points="269.96,901.15,273.96,892.15,269.96,896.15,265.96,892.15,269.96,901.15" style="stroke:#181818;stroke-width:1.0;"/><text fill="#000000" font-family="sans-serif" font-size="13" lengthAdjust="spacing" textLength="147.2021" x="270.96" y="867.3569">communicate with HW</text></g><!--link CanRequest to CanMessage--><g id="link_CanRequest_CanMessage"><path codeLine="59" d="M396.26,699.64 C406.08,708.32 416.64,718.66 424.96,729.29 C436.21,743.67 443.3684,756.4185 450.1784,770.6385 " fill="none" id="CanRequest-to-CanMessage" style="stroke:#181818;stroke-width:1.0;"/><polygon fill="#181818" points="452.77,776.05,452.4903,766.2051,450.6104,771.5405,445.275,769.6605,452.77,776.05" style="stroke:#181818;stroke-width:1.0;"/><text fill="#000000" font-family="sans-serif" font-size="13" lengthAdjust="spacing" textLength="72.8267" x="437.96" y="742.3569">create, use</text></g><!--SRC=[bPCnRyCW48LtViM9kL7tAEhGBEdWfL7L-OHF3f8DAk14KTN_tZEs4t2evAwFzntlxi2H2cYQba0UBzWqvE3ZJSAt-152jUWzLDUzDS7PjkMpHD_RhhEcidNFSAOxAgcnnkF1aOothg1VVQ2kK0XDHTvZirHVUxzGtkch9n_AQeK6cxaZTv_20LrzGKVJ3BAfx3QRbtmUMv0dD3M3RYphfSWC4ScRPwQBbuCQzJ9ocsBgvrm5SpR3kzr7kPWecsv2H5aAaIUU4YNxPgJtx3_nf6feRQEL54dcbKGMV2LJpFQmLaPhFQnrNamXtXgea70LbixtRumtL2SlHsJT_mDxC2tOPCKJ1ieH1csDJEWRDlobwPvdRepqcQ0RVvsFm63OZTxvDsuXnZfhXBk3BVE76WegxgytMc4WkEXmWiDd5XysoveovgGdu8SWVm40]--></g></svg>